<svg version="1.0" xmlns="http://www.w3.org/2000/svg" width="16" height="16"><path d="m3.765 2.529.06-.077.057-.078.055-.08.053-.082.051-.084.05-.086.048-.087.047-.089.045-.09.044-.092.044-.093.042-.095.163-.543.087-.547.013-.544-.057-.535-.124-.52-.19-.497-.25-.47-.31-.435-.367-.395-.419-.347-.469-.294-.516-.234-.543-.163-.547-.086-.544-.014-.536.057-.52.125-.497.19-.47.25-.435.31-.395.366-.347.42-.294.468-.234.517-.034.092-.031.093-.03.093-.027.094-.024.095-.022.095-.02.095-.017.096-.014.096-.011.096-.009.097-.005.096-.475-.307-.499-.236-.517-.166-.527-.098-.532-.028-.53.039-.52.106-.505.173-.482.239-.452.303-.417.369-.374.432-.314.478-.24.501-.17.518-.098.528-.028.532.04.528.11.52.175.503.24.48.307.452.37.416.433.373.18.133.189.121.194.11.2.098.205.087.21.076.215.064.219.053.222.04.224.03.226.018.228.006-.443.516-.392.548-.34.574-.286.598-.232.616-.177.63-.12.641-.062.646-.002.647.058.643.119.636.182.624-.035.016-.096.044-.145.066-.182.083-.206.093-.22.1-.218.1-.206.093-.182.083-.146.066-.096.044-.034.016.036.079.035.079.036.078.036.08.036.078.036.079.036.079.036.079.036.078.035.08.036.078.036.079.147-.067.148-.067.147-.067.147-.067.147-.067.147-.067.147-.067.148-.067.147-.067.147-.067.147-.067.147-.067.48.789.566.704.64.616.704.524.759.43.803.33.838.229.862.122.547 2.813 1.552-.287L.271 21l-.777.143-.407-1.916.88-.099.876-.215.86-.334.104-.048.288-.13.435-.199.546-.248.62-.282.656-.299.656-.298.62-.282.545-.249.436-.198.288-.13.104-.048.812-.52.73-.604.645-.679.555-.742.46-.793.363-.835.26-.864.155-.882.043-.89-.071-.886-.19-.87-.315-.845-.316-.648-.375-.602-.429-.554-.478-.504-.524-.451-.565-.396-.6-.338-.634-.278-.66-.215-.684-.15-.702-.081-.68-.012z"/><path fill="#F8CC0E" d="m-.26 18.098-.661.075-.654.002-.641-.07-.625-.137-.604-.206-.579-.272-.548-.336-.514-.4-.474-.46-.43-.52-.383-.578-.33-.634-.224-.587-.152-.605-.082-.618-.014-.625.053-.628.117-.623.18-.613.24-.598.297-.577.354-.55.409-.519.46-.48.095.208.26.575.396.867.495 1.088.561 1.234.595 1.308.595 1.308.562 1.234.495 1.087.395.868.26.574.09.198zM3.45 16.638l-.18.082-.182.083-.181.082-.181.083-.182.082-.18.083-.182.082-.181.083-.182.082-.18.082-.182.083-.181.082-.04.019-.042.018-.042.019-.043.019-.043.018-.044.018-.045.018-.044.016-.045.016-.044.014-.044.012-.043.011-.099-.216-.272-.598-.411-.904-.516-1.133-.585-1.286-.62-1.362-.62-1.363-.585-1.286-.515-1.133-.412-.903-.272-.599-.098-.216.043-.03.044-.029.044-.029.043-.028.043-.028.043-.027.042-.026.042-.025.042-.024.04-.022.041-.02.04-.02.042-.018.117-.053.176-.08.22-.101.251-.114.266-.12.265-.122.25-.114.222-.1.176-.08.116-.053.043-.02.42.925.421.924.42.925.421.924.421.925.42.925.421.924.421.925.42.924.421.925.421.924.4.878zM6.461 10.626l-.03.08-.03.081-.03.08-.03.08-.03.08-.03.081-.03.08-.03.08-.03.08-.03.081-.03.08-.03.08.312.102.319.073.322.045.324.017.323-.011.32-.039.316-.066.31-.093.301-.12.29-.146.279-.172.264-.199-.132.447-.16.433-.189.42-.215.403-.24.387-.267.37-.29.35-.315.33-.337.308-.36.286-.38.263-.402.238-.042.019-.116.053-.177.08-.22.1-.251.115-.266.12-.265.121-.25.114-.221.1-.177.08-.116.054-.042.02-.42-.923-.42-.922-.419-.922-.42-.921-.419-.922-.42-.922-.419-.922-.42-.922-.419-.922-.42-.922-.419-.922-.42-.922.18-.08.178-.082.179-.081.178-.082.179-.081.179-.081.178-.082.179-.08.179-.082.178-.081.179-.082.178-.081.752-.301.767-.194.77-.088.768.012.754.111.73.206.699.297.657.385.607.47.547.552.477.63.399.705.01.023.01.022.01.02.009.021.009.02.009.02.009.02.009.02.01.02.009.02.01.023.01.023.066.15.062.153.058.153.053.155.048.156.044.157.038.158.032.158.027.16.022.158.015.16.009.159-.15.33-.19.3-.227.269-.257.235-.285.2-.308.162-.327.122-.341.08-.352.037-.359-.01-.36-.057-.34-.102z"/><g fill="#FEFEFE"><path d="m-2.216 4.506-.11-.24-.11-.241-.109-.24-.109-.241-.11-.24-.109-.241-.11-.24-.109-.24-.11-.241-.109-.24-.109-.241-.11-.24-.205-.382-.247-.342-.286-.301-.318-.258-.346-.213-.37-.166-.386-.117-.401-.067-.41-.014-.412.039-.412.095-.405.153-.382.205-.342.248-.301.285-.258.319-.213.346-.166.369-.117.387-.067.4-.015.41.04.413.095.411.153.406.205.381.248.342.285.301.318.258.346.213.37.165.387.118.4.067.41.014.413-.039.411-.095.406-.153.056-.026.157-.071.238-.108.297-.136.337-.153.358-.163.357-.162.337-.154.298-.135.237-.108.157-.072.054-.024zM3.273 1.002 3.396.59l.067-.415.013-.414-.04-.408-.092-.397-.14-.38-.187-.36-.231-.332-.275-.301-.315-.266-.354-.224-.39-.177-.412-.123-.414-.066-.413-.01-.407.045-.395.095L-.967-3l-.358.19-.33.236-.3.277-.265.318-.223.356-.178.39-.067.2-.055.204-.042.205-.028.207-.015.208-.001.209.012.207.025.207.04.204.052.202.067.199.08.195.026.056.072.157.107.237.136.298.153.337.163.357.162.358.154.337.135.297.108.237.071.157.026.057.24-.11.241-.109.24-.11.241-.109.24-.11.241-.109.24-.11.241-.108.24-.11.241-.11.24-.109.241-.11.189-.093.18-.106.173-.117.163-.129.154-.138.144-.148.133-.157.122-.165.11-.173.1-.18.086-.186.069-.182z"/></g><path d="m5.147 8.885.132-.071.118-.087.104-.1.09-.112.073-.123.057-.131.04-.138.023-.144.004-.147-.016-.149-.035-.149-.056-.147-.074-.139-.088-.122-.102-.107-.112-.09-.123-.073-.13-.055-.137-.038-.143-.02-.145-.001-.148.018-.148.036-.148.057-.138.074-.123.089-.107.1-.09.112-.073.122-.057.128-.039.135-.021.14-.003.14.015.143.034.143.053.14.072.131.09.12.103.105.116.091.127.077.136.06.141.043.146.026.148.008.148-.012.145-.031.134-.05z"/><path fill="#FEFEFE" d="m13.681 2.407-.638-.524-.701-.409-.75-.291-.781-.175-.798-.059-.798.059-.781.175-.75.291-.701.409-.638.524-.547.623-.425.676-.304.718-.183.745-.06.758.06.759.183.745.304.717.425.677.547.622.638.525.701.408.75.292.782.175.797.058.798-.058.781-.175.75-.292.701-.408.638-.525.547-.622.425-.677.304-.717.183-.745.06-.759-.06-.758-.183-.745-.304-.718-.425-.676-.547-.623z"/><path stroke="#000" fill="none" stroke-linecap="round" stroke-width="2" d="m13.681 2.407-.638-.524-.701-.409-.75-.291-.781-.175-.798-.059-.798.059-.781.175-.75.291-.701.409-.638.524-.547.623-.425.676-.304.718-.183.745-.06.758.06.759.183.745.304.717.425.677.547.622.638.525.701.408.75.292.782.175.797.058.798-.058.781-.175.75-.292.701-.408.638-.525.547-.622.425-.677.304-.717.183-.745.06-.759-.06-.758-.183-.745-.304-.718-.425-.676-.547-.623z"/><path fill="#FEFEFE" d="M9.941 11.483v5.999z"/><path stroke="#000" fill="none" stroke-linecap="round" stroke-width="2" d="M9.941 11.483v5.999"/></svg>