<svg width="256" height="256" viewBox="0 0 256 256" fill="none" xmlns="http://www.w3.org/2000/svg">
<g clip-path="url(#clip0_2_94)">
<path d="M221.581 31.2344L211.183 22.4417L199.705 15.5579L187.412 10.5863L174.566 7.53057L161.431 6.39413L148.271 7.1805L135.348 9.89319L122.927 14.5357L111.271 21.1116L100.642 29.6243L91.4885 39.76L84.3268 50.822L79.1598 62.5855L75.9907 74.8255L74.8223 87.317L75.6578 99.8353L78.5 112.155L83.352 124.052L90.2167 135.301L99.0972 145.677L109.495 154.469L120.973 161.353L133.266 166.325L146.112 169.38L159.246 170.517L172.407 169.73L185.329 167.018L197.751 162.375L209.407 155.799L220.036 147.287L229.189 137.151L236.351 126.089L241.518 114.325L244.687 102.085L245.855 89.5939L245.02 77.0757L242.178 64.7557L237.326 52.8588L230.461 41.6101L221.581 31.2344Z" fill="#FEFEFE" stroke="black" stroke-width="17.7155"/>
<path d="M190.502 169.001C189.021 164.398 184.089 161.866 179.486 163.347C174.883 164.828 172.352 169.76 173.833 174.363L190.502 169.001ZM201.906 261.628C203.387 266.231 208.319 268.762 212.923 267.281C217.526 265.8 220.057 260.868 218.576 256.265L201.906 261.628ZM173.833 174.363L201.906 261.628L218.576 256.265L190.502 169.001L173.833 174.363Z" fill="black"/>
<path fill-rule="evenodd" clip-rule="evenodd" d="M51.6239 -18.2962L-59.7269 -48.3471C-133.589 -68.2806 -209.519 -27.6664 -234.785 43.1765L-273.47 32.7363L-279.238 54.1067L-240.637 64.524C-255.129 138.847 -209.857 212.805 -135.613 232.842L-24.262 262.892C53.3861 283.848 133.32 237.889 154.275 160.241C175.231 82.5929 129.272 2.65907 51.6239 -18.2962Z" fill="black"/>
<path fill-rule="evenodd" clip-rule="evenodd" d="M-218.019 59.7681C-203.132 4.60575 -153.471 -31.8728 -99.0156 -32.4317L-161.56 199.321C-208.341 171.441 -232.906 114.931 -218.019 59.7681ZM-130.149 212.596C-134.326 211.469 -138.396 210.142 -142.352 208.629L-77.7325 -30.8123C-73.5529 -30.1299 -69.3679 -29.2288 -65.1907 -28.1015L-19.0757 -15.6562L-84.0341 225.041L-130.149 212.596ZM-18.7982 242.647L-63.7885 230.505L1.16984 -10.1924L46.1602 1.94938C112.627 19.8871 151.967 88.3105 134.03 154.777C129.404 171.919 121.42 187.256 110.977 200.272C106.161 199.878 101.317 199.043 96.4914 197.74C74.1754 191.718 56.5532 176.862 46.233 157.82L29.7844 169.025C42.6784 191.069 63.9064 208.253 90.51 215.433C92.0842 215.858 93.6596 216.243 95.2354 216.589C64.9739 242.715 22.7064 253.848 -18.7982 242.647Z" fill="#F8CC0E"/>
<path d="M13.2681 -90.7912C8.09235 -71.6129 -5.39983 -21.6188 -5.39983 -21.6188C-5.39983 -21.6188 44.3403 -8.19516 63.2102 -3.10264C101.103 7.12355 140.178 -15.556 150.488 -53.7589C160.798 -91.9618 138.438 -131.221 100.546 -141.447C62.6538 -151.674 23.5781 -128.994 13.2681 -90.7912Z" fill="white" stroke="black" stroke-width="20.9699"/>
<circle cx="50.5131" cy="102.071" r="22.1349" transform="rotate(15.1029 50.5131 102.071)" fill="black"/>
</g>
<defs>
<clipPath id="clip0_2_94">
<rect width="256" height="256" fill="white"/>
</clipPath>
</defs>
</svg>
