<?xml version="1.0" encoding="UTF-8"?>
<!-- Generator: Blender, SVG Export for Grease Pencil - v1.0 -->
<!DOCTYPE svg PUBLIC "-//W3C//DTD SVG 1.1//EN" "http://www.w3.org/Graphics/SVG/1.1/DTD/svg11.dtd">
<svg version="1.0" x="0px" y="0px" xmlns="http://www.w3.org/2000/svg" width="16px" height="16px" viewBox="0 0 16 16">
	<g id="blender_frame_1">
		<g id="blender_object_bee.outline">
			<!--Layer: outline-->
			<g id="outline">
				<polygon fill="#000000" stroke="none" fill-opacity="1" points="3.767262,2.531591 2.976749,2.633257 1.957068,2.907295 -1.364984,4.469791 -4.687037,6.032289 -5.602397,6.668380 -6.168759,7.204909 -6.611491,7.720380 -7.003335,8.267519 -7.343122,8.841957 -7.629667,9.439329 -7.861780,10.055260 -8.038290,10.685388 -8.157997,11.325335 -8.219746,11.970745 -8.222328,12.617238 -8.164564,13.260447 -8.045286,13.896006 -7.863292,14.519541 -7.898029,14.535346 -7.994069,14.579046 -8.139143,14.645060 -8.320995,14.727806 -8.527363,14.821710 -8.745989,14.921190 -8.964617,15.020671 -9.170984,15.114573 -9.352837,15.197320 -9.497911,15.263334 -9.593950,15.307034 -9.628679,15.322837 -9.592827,15.401632 -9.556971,15.480428 -9.521118,15.559223 -9.485266,15.638020 -9.449411,15.716814 -9.413555,15.795610 -9.377703,15.874407 -9.341848,15.953201 -9.305994,16.031998 -9.270140,16.110792 -9.234285,16.189587 -9.198431,16.268383 -9.051315,16.201443 -8.904194,16.134499 -8.757080,16.067558 -8.609978,16.000622 -8.462856,15.933679 -8.315742,15.866738 -8.168629,15.799797 -8.021507,15.732854 -7.874401,15.665916 -7.727289,15.598976 -7.580168,15.532033 -7.433045,15.465089 -6.952873,16.253422 -6.388058,16.957138 -5.748644,17.572752 -5.044677,18.096775 -4.286208,18.525719 -3.483258,18.856092 -2.645899,19.084415 -1.784147,19.207191 -0.908078,19.220943 -0.027697,19.122169 0.846921,18.907393 1.705750,18.573120 1.809954,18.525703 2.098064,18.394608 2.533279,18.196575 3.078840,17.948330 3.697945,17.666622 4.353852,17.368168 5.009741,17.069721 5.628862,16.788006 6.174407,16.539768 6.609631,16.341732 6.897732,16.210636 7.001936,16.163221 7.813083,15.644286 8.542856,15.040055 9.187111,14.361664 9.741650,13.620267 10.202286,12.827015 10.564881,11.993039 10.825216,11.129507 10.979145,10.247553 11.022472,9.358328 10.951026,8.472982 10.760635,7.602657 10.447123,6.758500 10.130986,6.111307 9.756356,5.509487 9.327658,4.955520 8.849322,4.451879 8.325779,4.001040 7.761461,3.605478 7.160789,3.267672 6.528196,2.990097 5.868129,2.775221 5.184986,2.625532 4.483223,2.543497 3.803064,2.532187" />
			</g>
		</g>
	</g>
	<g id="blender_frame_1">
		<g id="blender_object_glass">
			<!--Layer: GP_Layer-->
			<g id="GP_Layer">
				<polygon fill="#FEFEFE" stroke="none" fill-opacity="1" points="13.680988,2.407436 13.043267,1.882577 12.341629,1.474354 11.592053,1.182766 10.810520,1.007812 10.013007,0.949495 9.215494,1.007812 8.433960,1.182765 7.684385,1.474353 6.982747,1.882576 6.345026,2.407436 5.798067,3.029533 5.372655,3.706203 5.068789,4.423804 4.886471,5.168692 4.825699,5.927222 4.886474,6.685753 5.068794,7.430639 5.372663,8.148239 5.798077,8.824909 6.345037,9.447005 6.982758,9.971861 7.684395,10.380081 8.433969,10.671669 9.215503,10.846620 10.013014,10.904936 10.810526,10.846618 11.592058,10.671664 12.341633,10.380075 13.043269,9.971853 13.680988,9.446996 14.227945,8.824900 14.653357,8.148231 14.957223,7.430631 15.139542,6.685744 15.200315,5.927215 15.139542,5.168685 14.957222,4.423800 14.653357,3.706200 14.227944,3.029531 13.680986,2.407434" />
				<polygon stroke="#000000" stroke-opacity="1" fill="none" stroke-linecap="round" stroke-width="2" points="13.680988,2.407436 13.043267,1.882577 12.341629,1.474354 11.592053,1.182766 10.810520,1.007812 10.013007,0.949495 9.215494,1.007812 8.433960,1.182765 7.684385,1.474353 6.982747,1.882576 6.345026,2.407436 5.798067,3.029533 5.372655,3.706203 5.068789,4.423804 4.886471,5.168692 4.825699,5.927222 4.886474,6.685753 5.068794,7.430639 5.372663,8.148239 5.798077,8.824909 6.345037,9.447005 6.982758,9.971861 7.684395,10.380081 8.433969,10.671669 9.215503,10.846620 10.013014,10.904936 10.810526,10.846618 11.592058,10.671664 12.341633,10.380075 13.043269,9.971853 13.680988,9.446996 14.227945,8.824900 14.653357,8.148231 14.957223,7.430631 15.139542,6.685744 15.200315,5.927215 15.139542,5.168685 14.957222,4.423800 14.653357,3.706200 14.227944,3.029531 13.680986,2.407434" />
				<polygon fill="#FEFEFE" stroke="none" fill-opacity="1" points="9.941196,11.482675 9.941196,17.481518" />
				<polyline stroke="#000000" stroke-opacity="1" fill="none" stroke-linecap="round" stroke-width="2" points="9.941196,11.482675 9.941196,17.481518" />
			</g>
		</g>
	</g>
	<g id="blender_frame_1">
		<g id="blender_object_bee.body">
			<!--Layer: outline-->
			<g id="outline">
				<polygon fill="#F8CC0E" stroke="none" fill-opacity="1" points="-0.272560,18.112827 -0.934183,18.187492 -1.588517,18.189528 -2.230966,18.120537 -2.856965,17.982151 -3.461927,17.775986 -4.041280,17.503666 -4.590469,17.166824 -5.104888,16.767065 -5.579989,16.306026 -6.011181,15.785320 -6.393896,15.206573 -6.723556,14.571407 -6.948699,13.984109 -7.101251,13.378065 -7.183273,12.758978 -7.196789,12.132530 -7.143849,11.504417 -7.026485,10.880328 -6.846757,10.265958 -6.606690,9.666994 -6.308331,9.089129 -5.953723,8.538055 -5.544891,8.019456 -5.083901,7.539033 -4.989234,7.747083 -4.727505,8.322277 -4.332129,9.191189 -3.836516,10.280387 -3.274079,11.516443 -2.678231,12.825930 -2.082380,14.135416 -1.519943,15.371473 -1.024330,16.460670 -0.628955,17.329584 -0.367227,17.904778 -0.277292,18.102425" />
				<polygon fill="#F8CC0E" stroke="none" fill-opacity="1" points="3.444174,16.650211 3.262653,16.732807 3.081124,16.815407 2.899596,16.898008 2.718067,16.980608 2.536546,17.063206 2.355017,17.145805 2.173481,17.228409 1.991951,17.311008 1.810422,17.393608 1.628902,17.476206 1.447365,17.558809 1.265836,17.641411 1.225739,17.659630 1.184511,17.678238 1.142298,17.697027 1.099267,17.715790 1.055606,17.734310 1.011487,17.752380 0.967043,17.769804 0.922492,17.786350 0.877975,17.801823 0.833667,17.816006 0.789728,17.828701 0.746342,17.839693 0.647717,17.622950 0.375053,17.023720 -0.036848,16.118492 -0.553174,14.983775 -1.139114,13.696063 -1.759864,12.331852 -2.380614,10.967642 -2.966557,9.679928 -3.482882,8.545210 -3.894781,7.639986 -4.167449,7.040753 -4.266072,6.824011 -4.222315,6.794598 -4.178608,6.765341 -4.135036,6.736408 -4.091638,6.707952 -4.048483,6.680138 -4.005629,6.653119 -3.963126,6.627054 -3.921048,6.602109 -3.879447,6.578440 -3.838373,6.556200 -3.797898,6.535556 -3.758094,6.516672 -3.715847,6.497448 -3.599068,6.444311 -3.422664,6.364043 -3.201523,6.263418 -2.950569,6.149228 -2.684706,6.028254 -2.418843,5.907279 -2.167890,5.793089 -1.946755,5.692468 -1.770345,5.612196 -1.653557,5.559054 -1.611327,5.539839 -1.190034,6.465704 -0.768743,7.391568 -0.347450,8.317432 0.073841,9.243297 0.495133,10.169162 0.916424,11.095025 1.337716,12.020890 1.759007,12.946754 2.180299,13.872618 2.601591,14.798483 3.022882,15.724348 3.423109,16.603920" />
				<polygon fill="#F8CC0E" stroke="none" fill-opacity="1" points="6.459096,10.630302 6.428982,10.710677 6.398860,10.791057 6.368753,10.871428 6.338640,10.951803 6.308526,11.032177 6.278419,11.112549 6.248297,11.192928 6.218184,11.273303 6.188069,11.353678 6.157955,11.434052 6.127841,11.514428 6.097719,11.594810 6.411193,11.696527 6.730195,11.769669 7.052709,11.814491 7.376741,11.831238 7.700279,11.820167 8.021338,11.781516 8.337892,11.715546 8.647961,11.622499 8.949527,11.502631 9.240582,11.356194 9.519136,11.183429 9.783173,10.984598 9.651108,11.431896 9.490541,11.865971 9.302249,12.285673 9.087050,12.689838 8.845727,13.077318 8.579099,13.446943 8.287924,13.797577 7.973035,14.128044 7.635211,14.437201 7.275253,14.723888 6.893960,14.986944 6.492131,15.225213 6.449893,15.244432 6.333113,15.297570 6.156693,15.377846 5.935559,15.478466 5.684615,15.592653 5.418752,15.713628 5.152888,15.834602 4.901926,15.948796 4.680785,16.049423 4.504374,16.129692 4.387602,16.182827 4.345356,16.202049 3.925261,15.278816 3.505167,14.355583 3.085072,13.432348 2.664977,12.509114 2.244882,11.585880 1.824787,10.662646 1.404693,9.739412 0.984598,8.816178 0.564503,7.892944 0.144407,6.969709 -0.275686,6.046475 -0.695782,5.123242 -0.516887,5.041841 -0.337982,4.960436 -0.159088,4.879034 0.019807,4.797631 0.198703,4.716230 0.377614,4.634821 0.556501,4.553423 0.735405,4.472016 0.914309,4.390612 1.093204,4.309210 1.272099,4.227807 1.450994,4.146406 2.203920,3.844616 2.971238,3.650971 3.743661,3.562157 4.511865,3.574872 5.266555,3.685809 5.998405,3.891671 6.698113,4.189150 7.356362,4.574944 7.963850,5.045747 8.511266,5.598253 8.989309,6.229156 9.388636,6.935165 9.399125,6.958217 9.409115,6.980172 9.418707,7.001251 9.427999,7.021673 9.437092,7.041656 9.446085,7.061419 9.455077,7.081183 9.464170,7.101167 9.473462,7.121588 9.483054,7.142666 9.493044,7.164621 9.503533,7.187673 9.569745,7.338470 9.631807,7.490891 9.689494,7.644773 9.742615,7.799939 9.790944,7.956227 9.834282,8.113464 9.872422,8.271479 9.905155,8.430099 9.932256,8.589169 9.953533,8.748506 9.968771,8.907946 9.977753,9.067322 9.827265,9.397704 9.636747,9.698545 9.410408,9.967798 9.152498,10.203398 8.867219,10.403296 8.558795,10.565443 8.231478,10.687769 7.889475,10.768228 7.537004,10.804767 7.178301,10.795330 6.817590,10.737860 6.477024,10.635677" />
			</g>
		</g>
	</g>
	<g id="blender_frame_1">
		<g id="blender_object_bee.eye">
			<!--Layer: eye-->
			<g id="eye">
				<polygon fill="#000000" stroke="none" fill-opacity="1" points="5.214845,8.863648 5.343338,8.794239 5.458740,8.709785 5.560338,8.611943 5.647427,8.502359 5.719286,8.382697 5.775213,8.254599 5.814497,8.119719 5.836419,7.979714 5.840284,7.836231 5.825373,7.690925 5.790970,7.545448 5.736369,7.401453 5.663938,7.266327 5.577507,7.146606 5.478596,7.042667 5.368686,6.954896 5.249294,6.883669 5.121908,6.829370 4.988047,6.792371 4.849205,6.773056 4.706879,6.771808 4.562583,6.788997 4.417803,6.825014 4.274055,6.880235 4.138888,6.952660 4.019077,7.038963 3.914951,7.137537 3.826841,7.246761 3.755075,7.365032 3.699993,7.490732 3.661905,7.622253 3.641155,7.757981 3.638065,7.896304 3.652979,8.035608 3.686213,8.174284 3.738104,8.310715 3.808393,8.439530 3.895223,8.555901 3.996500,8.659051 4.110157,8.748195 4.234103,8.822555 4.366256,8.881355 4.504530,8.923811 4.646844,8.949144 4.791118,8.956573 4.935265,8.945321 5.077201,8.914606 5.207964,8.866198" />
			</g>
		</g>
	</g>
	<g id="blender_frame_1">
		<g id="blender_object_bee.wings">
			<!--Layer: wing.R-->
			<g id="wing.R">
				<polygon fill="#FEFEFE" stroke="none" fill-opacity="1" points="3.559672,1.030340 3.694695,0.581554 3.767804,0.128731 3.781209,-0.322708 3.737068,-0.767292 3.637595,-1.199585 3.484940,-1.614134 3.281327,-2.005482 3.028923,-2.368191 2.729925,-2.696808 2.386514,-2.985889 2.000870,-3.229980 1.575208,-3.423620 1.126698,-3.557865 0.674678,-3.628990 0.224484,-3.639439 -0.218532,-3.591642 -0.649032,-3.488022 -1.061699,-3.331009 -1.451163,-3.123032 -1.812110,-2.866528 -2.139177,-2.563913 -2.427050,-2.217627 -2.670373,-1.830103 -2.863791,-1.403765 -2.937661,-1.185734 -2.997279,-0.964382 -3.042534,-0.740475 -3.073369,-0.514784 -3.089679,-0.288086 -3.091381,-0.061155 -3.078381,0.165239 -3.050604,0.390328 -3.007948,0.613337 -2.950328,0.833494 -2.877653,1.050020 -2.789851,1.262149 -2.761695,1.324026 -2.683844,1.495117 -2.566243,1.753567 -2.418827,2.077538 -2.251536,2.445191 -2.074306,2.834686 -1.897077,3.224180 -1.729784,3.591834 -1.582370,3.915806 -1.464767,4.174255 -1.386922,4.345338 -1.358761,4.407225 -1.096616,4.287942 -0.834470,4.168659 -0.572326,4.049376 -0.310182,3.930094 -0.048036,3.810812 0.214110,3.691528 0.476254,3.572247 0.738399,3.452964 1.000544,3.333681 1.262689,3.214399 1.524834,3.095117 1.786979,2.975834 1.992561,2.873573 2.189496,2.758112 2.377231,2.630142 2.555193,2.490362 2.722818,2.339466 2.879553,2.178150 3.024833,2.007105 3.158083,1.827027 3.278769,1.638620 3.386287,1.442574 3.480119,1.239579 3.555698,1.040796" />
				<polygon stroke="#000000" stroke-opacity="1" fill="none" stroke-linecap="round" stroke-width="2" points="3.559672,1.030340 3.694695,0.581554 3.767804,0.128731 3.781209,-0.322708 3.737068,-0.767292 3.637595,-1.199585 3.484940,-1.614134 3.281327,-2.005482 3.028923,-2.368191 2.729925,-2.696808 2.386514,-2.985889 2.000870,-3.229980 1.575208,-3.423620 1.126698,-3.557865 0.674678,-3.628990 0.224484,-3.639439 -0.218532,-3.591642 -0.649032,-3.488022 -1.061699,-3.331009 -1.451163,-3.123032 -1.812110,-2.866528 -2.139177,-2.563913 -2.427050,-2.217627 -2.670373,-1.830103 -2.863791,-1.403765 -2.937661,-1.185734 -2.997279,-0.964382 -3.042534,-0.740475 -3.073369,-0.514784 -3.089679,-0.288086 -3.091381,-0.061155 -3.078381,0.165239 -3.050604,0.390328 -3.007948,0.613337 -2.950328,0.833494 -2.877653,1.050020 -2.789851,1.262149 -2.761695,1.324026 -2.683844,1.495117 -2.566243,1.753567 -2.418827,2.077538 -2.251536,2.445191 -2.074306,2.834686 -1.897077,3.224180 -1.729784,3.591834 -1.582370,3.915806 -1.464767,4.174255 -1.386922,4.345338 -1.358761,4.407225 -1.096616,4.287942 -0.834470,4.168659 -0.572326,4.049376 -0.310182,3.930094 -0.048036,3.810812 0.214110,3.691528 0.476254,3.572247 0.738399,3.452964 1.000544,3.333681 1.262689,3.214399 1.524834,3.095117 1.786979,2.975834 1.992561,2.873573 2.189496,2.758112 2.377231,2.630142 2.555193,2.490362 2.722818,2.339466 2.879553,2.178150 3.024833,2.007105 3.158083,1.827027 3.278769,1.638620 3.386287,1.442574 3.480119,1.239579 3.555698,1.040796" />
			</g>
			<!--Layer: wing.L-->
			<g id="wing.L">
				<polygon fill="#FEFEFE" stroke="none" fill-opacity="1" points="-1.908773,4.620823 -2.028026,4.358740 -2.147286,4.096648 -2.266538,3.834557 -2.385802,3.572466 -2.505059,3.310373 -2.624317,3.048289 -2.743570,2.786196 -2.862828,2.524110 -2.982081,2.262018 -3.101345,1.999926 -3.220598,1.737843 -3.339861,1.475750 -3.563550,1.059795 -3.833575,0.686896 -4.144644,0.359034 -4.491424,0.078182 -4.868673,-0.153667 -5.271052,-0.334522 -5.693281,-0.462418 -6.130048,-0.535362 -6.576067,-0.551365 -7.026052,-0.508457 -7.474695,-0.404640 -7.916687,-0.237932 -8.332731,-0.014206 -8.705723,0.255837 -9.033689,0.566917 -9.314636,0.913706 -9.546566,1.290926 -9.727516,1.693283 -9.855501,2.115463 -9.928516,2.552197 -9.944601,2.998159 -9.901752,3.448071 -9.797983,3.896622 -9.631340,4.338530 -9.407635,4.754480 -9.137627,5.127385 -8.826561,5.455256 -8.479761,5.736096 -8.102522,5.967949 -7.700142,6.148808 -7.277915,6.276696 -6.841146,6.349644 -6.395119,6.365643 -5.945134,6.322733 -5.496503,6.218918 -5.054510,6.052213 -4.992616,6.024051 -4.821487,5.946184 -4.562985,5.828556 -4.238953,5.681116 -3.871214,5.513783 -3.481645,5.336517 -3.092069,5.159255 -2.724329,4.991922 -2.400282,4.844475 -2.141795,4.726853 -1.970654,4.648982 -1.911861,4.622229" />
				<polygon stroke="#000000" stroke-opacity="1" fill="none" stroke-linecap="round" stroke-width="2" points="-1.908773,4.620823 -2.028026,4.358740 -2.147286,4.096648 -2.266538,3.834557 -2.385802,3.572466 -2.505059,3.310373 -2.624317,3.048289 -2.743570,2.786196 -2.862828,2.524110 -2.982081,2.262018 -3.101345,1.999926 -3.220598,1.737843 -3.339861,1.475750 -3.563550,1.059795 -3.833575,0.686896 -4.144644,0.359034 -4.491424,0.078182 -4.868673,-0.153667 -5.271052,-0.334522 -5.693281,-0.462418 -6.130048,-0.535362 -6.576067,-0.551365 -7.026052,-0.508457 -7.474695,-0.404640 -7.916687,-0.237932 -8.332731,-0.014206 -8.705723,0.255837 -9.033689,0.566917 -9.314636,0.913706 -9.546566,1.290926 -9.727516,1.693283 -9.855501,2.115463 -9.928516,2.552197 -9.944601,2.998159 -9.901752,3.448071 -9.797983,3.896622 -9.631340,4.338530 -9.407635,4.754480 -9.137627,5.127385 -8.826561,5.455256 -8.479761,5.736096 -8.102522,5.967949 -7.700142,6.148808 -7.277915,6.276696 -6.841146,6.349644 -6.395119,6.365643 -5.945134,6.322733 -5.496503,6.218918 -5.054510,6.052213 -4.992616,6.024051 -4.821487,5.946184 -4.562985,5.828556 -4.238953,5.681116 -3.871214,5.513783 -3.481645,5.336517 -3.092069,5.159255 -2.724329,4.991922 -2.400282,4.844475 -2.141795,4.726853 -1.970654,4.648982 -1.911861,4.622229" />
			</g>
		</g>
	</g>
</svg>
